<svg width="102" height="102" viewBox="0 0 102 102" fill="none" xmlns="http://www.w3.org/2000/svg">
<g clip-path="url(#clip0_97_1318)">
<path d="M17.5978 0L84.3122 0C84.7577 0.115128 85.2129 0.181924 85.6623 0.280091C86.6685 0.492088 87.6637 0.754032 88.644 1.06495C93.0204 2.51223 96.7365 5.47434 99.1232 9.41799C100.013 10.9273 100.713 12.5405 101.209 14.2211C101.393 14.8678 101.76 17.42 102 17.7264V84.2061C101.992 84.2186 101.984 84.231 101.976 84.2435C101.656 84.7622 101.536 86.5207 101.372 87.2138C101.254 87.7222 101.067 88.2275 100.898 88.722C99.1979 93.6029 95.6549 97.6247 91.0274 99.9271C89.9952 100.45 88.8547 100.956 87.731 101.236C87.0117 101.415 85.0017 101.728 84.5136 102H17.3934C16.9281 101.805 16.3251 101.766 15.8244 101.67C15.0485 101.524 14.2353 101.346 13.4837 101.102C7.71628 99.2281 2.93707 94.4001 1.00901 88.667C0.779719 87.9771 0.589103 87.2749 0.438054 86.5637C0.321883 86.0015 0.294188 84.822 0.0439342 84.3797C0.0300198 84.3551 0.0146448 84.3314 0 84.3072L0 17.7886C0.225465 17.0684 0.317003 16.2646 0.482308 15.5244C0.867159 13.7182 1.49814 11.9734 2.35759 10.3389C4.46247 6.41423 8.1847 2.81397 12.4471 1.34239C13.444 1.002 14.458 0.714377 15.4852 0.480703C16.1631 0.329851 16.8705 0.224654 17.5333 0.0202292L17.5978 0Z" fill="white"/>
<path d="M72.2933 34.635C73.0377 34.3779 74.4857 33.7232 75.1581 33.6513C75.732 33.5901 81.2397 35.0062 81.9449 35.3459C82.1109 35.4259 82.2826 35.5057 82.3411 35.6905C82.475 36.1139 82.3761 38.2051 82.3754 38.8118L82.3729 46.8763L82.3705 69.6628L82.362 76.6129C82.3634 78.0839 82.3991 79.5632 82.3431 81.0332C82.3364 81.2069 82.3448 81.455 82.2587 81.6076C82.1233 81.7165 81.9809 81.7921 81.8224 81.8609C80.9498 82.2394 80.0331 82.5441 79.1503 82.9054C78.4417 83.1954 77.724 83.5849 76.9938 83.8006C76.7508 83.8723 76.5378 83.8796 76.286 83.8496C75.1977 83.72 73.8151 83.2484 72.726 82.9655C71.6767 82.6929 70.5501 82.4986 69.5338 82.1266C69.5264 81.0228 69.5345 79.9135 69.4853 78.8107C67.7853 79.4501 66.168 80.2956 64.4668 80.9405L59.6182 79.6504C58.8652 79.4507 58.0261 79.3147 57.3098 79.0086C57.2238 77.9895 57.1795 76.9359 57.1743 75.9132C56.4214 76.229 55.6451 76.4861 54.8944 76.8052C54.243 77.0822 53.07 77.7864 52.433 77.8761C51.9667 77.9417 46.1468 76.3256 45.1221 76.0683L45.1206 73.2618C43.8062 73.74 41.6444 74.7951 40.343 74.9249C40.02 74.9571 33.7638 73.3221 33.2293 73.1064C33.1677 68.0886 33.3635 63.0681 33.2158 58.05C34.1831 57.5438 35.2393 57.1479 36.2536 56.7443C37.0652 56.4214 37.8791 56.0709 38.7096 55.8008L45.2132 57.4538C45.2148 56.8432 45.1277 52.4057 45.3039 52.1544C45.8563 51.7763 46.5637 51.5599 47.1827 51.3093C48.3075 50.8538 49.4496 50.4202 50.5532 49.9159C52.1388 50.2164 53.774 50.7025 55.3487 51.0865C56.0142 51.2488 56.6918 51.444 57.3725 51.5261C57.3751 50.4947 57.2558 45.1771 57.4641 44.5477C58.0881 43.9729 61.939 42.6819 62.9188 42.3731C64.3843 42.7348 65.8522 43.0871 67.3222 43.4301C68.0712 43.6074 68.8291 43.8261 69.5853 43.9639C69.5655 41.2457 69.5023 38.5079 69.5766 35.7916C70.1588 35.4959 71.2965 34.9348 71.9155 34.8127L72.0076 34.8479C72.1642 34.8172 72.1894 34.752 72.2933 34.635Z" fill="#114C9E"/>
<path d="M70.3757 36.4458C71.1417 36.4813 71.9422 36.7836 72.6824 36.9868C73.8801 37.3123 75.0751 37.6475 76.2674 37.9924C76.2113 39.377 76.2515 40.7733 76.2418 42.1596C76.1994 44.85 76.1854 47.541 76.2001 50.2317L76.1993 71.2915L76.1989 79.0274C76.1991 80.3287 76.285 81.6853 76.1821 82.9789L70.2765 81.4378C70.3581 79.3327 70.3246 77.2178 70.3246 75.1112L70.3248 65.3583L70.3757 36.4458Z" fill="#FEFEFE"/>
<path d="M81.5258 36.1584C81.5409 36.1729 81.5588 36.1848 81.5708 36.2018C81.6312 36.2865 81.6272 36.4168 81.6285 36.5157C81.6574 38.7463 81.5883 40.9763 81.5824 43.2064L81.5796 56.7559L81.5694 70.388C81.5777 73.9663 81.5503 77.5444 81.4873 81.1221C80.0494 81.693 78.6172 82.2779 77.1908 82.8768L77.1758 82.8823C77.0876 82.7729 77.0978 82.6888 77.0937 82.5509C77.0474 80.9675 77.0982 79.3674 77.0983 77.7826L77.0984 67.8577L77.0975 37.94C78.5529 37.3053 80.0499 36.7451 81.5258 36.1584Z" fill="#FEFEFE"/>
<path d="M58.174 45.0974C60.1355 45.5762 62.1029 46.0847 64.0385 46.6588L64.0028 68.3491C63.9997 72.197 63.9317 76.0572 64.0212 79.9039C62.043 79.3736 60.0607 78.8578 58.0748 78.3568L58.174 45.0974Z" fill="#FEFEFE"/>
<path d="M69.1961 45.0205L69.2686 45.0421C69.3323 45.1521 69.3251 45.2635 69.3281 45.386C69.3569 46.54 69.3266 47.7012 69.3263 48.8562L69.3271 55.7147L69.3283 78.0585C67.8882 78.6622 66.4165 79.2058 64.9624 79.7756L64.8706 79.7538C64.7548 79.2992 64.8537 78.1537 64.8558 77.6131L64.875 71.8534L64.9443 46.6646C66.3752 46.1546 67.7653 45.533 69.1961 45.0205Z" fill="#FEFEFE"/>
<path d="M46.0225 52.7688C47.9592 53.0569 49.9099 53.7026 51.7973 54.2275L51.7976 71.8972C51.7976 72.4182 51.8647 76.5314 51.7948 76.7495C51.7824 76.7881 51.7535 76.8194 51.7328 76.8543L45.9347 75.3083C46 72.1468 45.9664 68.9788 45.9715 65.8163L46.0225 52.7688Z" fill="#FEFEFE"/>
<path d="M57.0811 52.4924L57.1533 52.5464C57.2482 53.222 57.1742 54.0049 57.1738 54.6909L57.1737 59.1688L57.1769 75.0663C56.4982 75.3635 55.7745 75.5769 55.0811 75.8417C54.3157 76.134 53.566 76.4794 52.8121 76.8006L52.7281 76.7714C52.6105 76.396 52.6943 72.0493 52.6943 71.3399L52.6922 54.2169C54.1499 53.6289 55.6129 53.054 57.0811 52.4924Z" fill="#FEFEFE"/>
<path d="M34.0619 58.6506C35.9654 59.0138 37.9667 59.6492 39.8438 60.1664L39.842 73.9867C39.2699 73.883 38.6884 73.6887 38.1251 73.5397C36.7671 73.181 35.4101 72.8036 34.0425 72.4836C34.1349 67.8781 34.0682 63.2575 34.0619 58.6506Z" fill="#FEFEFE"/>
<path d="M44.9635 58.6765C44.9854 58.7067 45.0167 58.7319 45.0292 58.7671C45.1107 58.9945 45.0405 61.3736 45.0397 61.8483L45.0277 72.3225C43.6085 72.885 42.1853 73.4373 40.7582 73.9793C40.7218 73.9281 40.7095 73.8952 40.7065 73.8319C40.6852 73.3701 40.7244 72.8936 40.7306 72.4305L40.7394 69.8044C40.7362 66.6109 40.752 63.4174 40.7867 60.224C41.9447 59.6142 43.6966 59.1222 44.9635 58.6765Z" fill="#FEFEFE"/>
<path d="M63.53 26.5447C63.16 26.2225 60.1031 23.5819 60.0732 23.37C60.2127 23.1933 60.4404 23.114 60.6473 23.0419C63.2927 22.1209 66.1632 21.5038 68.8761 20.7682L72.7109 19.7223C73.6214 19.4742 74.5339 19.1889 75.4701 19.0596C75.253 20.4539 74.8959 21.8601 74.6191 23.2466L72.2933 34.635C72.1894 34.752 72.1642 34.8172 72.0076 34.848L71.9155 34.8127C71.6282 34.4303 71.2024 34.0751 70.8612 33.7357C70.1242 33.013 69.3971 32.2801 68.6801 31.5374C67.9925 32.0584 67.3487 32.6539 66.6832 33.2042C65.6081 34.0895 64.5153 34.953 63.4054 35.7943C59.3986 38.8362 55.2629 41.7042 51.0093 44.3902C49.7509 45.1962 47.5306 46.7479 46.2307 47.2336C43.9093 45.5898 41.7557 43.7696 39.532 42.0038C38.8059 42.3682 38.1305 42.9018 37.4612 43.3628L34.3485 45.4798C30.6187 47.9715 26.9056 50.4878 23.2093 53.0289C22.3405 53.6311 21.4778 54.2423 20.6214 54.8623C20.0963 55.2446 19.552 55.7182 18.9766 56.0141C18.3727 55.6269 17.8515 55.0561 17.3741 54.5264C17.8111 53.9746 18.4226 53.5015 18.9546 53.0442L21.3193 51.0387L30.5702 43.3361L36.138 38.6384C37.1217 37.803 38.7363 36.2608 39.8038 35.7255C40.3877 36.012 40.9327 36.5224 41.4337 36.9348C42.4734 37.8036 43.5074 38.6794 44.5353 39.5621C45.1702 40.1024 45.8011 40.7071 46.5154 41.1383C48.3668 40.6003 58.3246 31.8023 60.31 29.9228C61.4269 28.8653 62.5926 27.7687 63.53 26.5447Z" fill="#114C9E"/>
<path d="M21.6354 59.0726C21.8402 59.066 22.0712 59.0507 22.2425 59.1799C22.4298 59.7565 22.3173 62.6431 22.3173 63.3955L22.3151 71.2754C23.0214 71.009 23.7122 70.6563 24.403 70.3494L29.1194 68.2457C29.8106 67.9419 30.5234 67.5597 31.238 67.3292C31.427 67.2682 31.6851 67.1937 31.8821 67.2608C31.984 67.2954 32.0424 67.3722 32.0861 67.4673C32.1485 67.6033 32.1562 67.7234 32.1053 67.8653C31.5815 68.3912 27.4049 70.0885 26.4961 70.4907C25.4418 70.9612 24.3913 71.4399 23.3446 71.9268C25.2549 72.2877 27.1824 72.9003 29.0689 73.3915L39.6605 76.1401L57.4187 80.8051C61.0147 81.7462 64.6244 82.6469 68.2077 83.6345C69.2082 83.8671 72.1509 84.5441 72.9199 84.9564C72.8821 85.1555 72.8607 85.4228 72.715 85.5752C72.5817 85.7148 72.3682 85.7506 72.1831 85.7321C71.6379 85.6777 71.0352 85.3921 70.5043 85.2402C69.3424 84.9077 68.1614 84.6184 66.9935 84.3034L35.6422 76.0493L26.1793 73.571C25.3928 73.3707 24.6073 73.1658 23.8231 72.9564C23.3131 72.8215 22.7722 72.6458 22.2485 72.5804C20.9134 72.4137 18.4467 74.1528 17.6584 74.0746C17.5315 74.062 17.4178 74.0103 17.3431 73.903C17.2699 73.798 17.27 73.7103 17.2936 73.5911C17.4866 73.2339 20.8452 71.9587 21.4683 71.6809L21.4464 63.1149L21.4351 60.6797C21.433 60.2657 21.3949 59.8109 21.4524 59.4016C21.473 59.2549 21.5376 59.1794 21.6354 59.0726Z" fill="#114C9E"/>
</g>
<defs>
<clipPath id="clip0_97_1318">
<rect width="102" height="102" fill="white"/>
</clipPath>
</defs>
</svg>
