<svg width="102" height="102" viewBox="0 0 102 102" fill="none" xmlns="http://www.w3.org/2000/svg">
<g clip-path="url(#clip0_97_1332)">
<path d="M17.99 0L83.6177 0L83.6625 0.00913621C84.8212 0.237098 85.9848 0.309593 87.1387 0.59844C91.8476 1.76015 95.9533 4.63797 98.6516 8.6683C99.8225 10.3989 100.775 12.3935 101.289 14.4189C101.565 15.5069 101.739 16.6176 102 17.7087V84.4539C101.994 84.4742 101.988 84.4944 101.982 84.5148C101.822 85.0883 101.763 85.6934 101.65 86.2783C101.514 86.9876 101.316 87.6957 101.097 88.3839C99.5496 93.1047 96.3104 97.0861 92.0028 99.5606C90.4042 100.471 88.7015 101.185 86.8951 101.557C86.0716 101.726 85.2162 101.798 84.4034 102H17.6059C16.8872 101.824 16.1287 101.747 15.4018 101.591C13.3151 101.15 11.3185 100.357 9.49763 99.2478C5.25845 96.629 2.13287 92.54 0.718215 87.7622C0.372888 86.5849 0.281894 85.3864 0 84.2032L0 17.7079C0.25601 16.8283 0.358629 15.8764 0.566474 14.9798C1.14152 12.4992 2.19692 10.2778 3.66152 8.20272C6.05532 4.8111 9.52078 2.10072 13.5286 0.909613C15.014 0.468165 16.4714 0.262543 17.99 0Z" fill="white"/>
<path d="M22.5276 17.9687C22.537 17.1713 22.9296 16.0334 23.5057 15.4681C23.5223 15.4519 23.5394 15.4364 23.5563 15.4204L23.4493 15.6087C24.5126 14.3096 25.54 13.256 27.3001 13.0755C28.1555 12.9879 29.0652 13.0475 29.9258 13.0481L34.668 13.0464L50.4683 13.0495L67.0197 13.0479L71.8648 13.0415C72.8694 13.0369 73.9139 12.9774 74.9135 13.0732C75.827 13.1676 76.6922 13.5294 77.4009 14.1133C78.5336 15.055 79.3881 16.5043 79.5191 17.9781C79.6444 19.3877 79.5926 20.8228 79.5933 22.2377L79.5914 29.076L79.5919 50.7313L79.5944 72.5313V79.3766C79.5956 80.5716 79.6711 81.8253 79.5721 83.0149C79.4674 84.2718 79.0381 85.4531 78.2253 86.4254C77.1358 87.7288 75.6308 88.4823 73.944 88.6236C72.9739 88.7048 71.9707 88.6562 70.9971 88.6547L65.9828 88.6521L49.7196 88.6518L35.5783 88.6528L31.3427 88.6541C30.1766 88.6538 28.9929 88.6796 27.8326 88.5435C26.6289 88.4022 25.5314 87.9696 24.6052 87.1749C23.6125 86.3231 22.5267 84.7788 22.4293 83.4379C22.352 82.3746 22.395 81.2842 22.3948 80.2182L22.4006 74.8258L22.4105 59.9242L22.4147 40.9235C22.4206 38.8584 22.4368 36.7933 22.4635 34.7284C22.4684 33.6494 22.4101 32.5506 22.4691 31.474L22.4559 22.6758C22.455 21.1127 22.3958 19.5265 22.5276 17.9687Z" fill="#114C9E"/>
<path d="M22.5276 17.9688C22.6867 18.2489 22.5963 19.8945 22.5961 20.3406L22.5944 28.2491L22.5994 30.4215C22.6 30.6961 22.6424 31.0554 22.5918 31.3226C22.5802 31.3843 22.5708 31.3967 22.5464 31.4462L22.4691 31.474L22.4558 22.6758C22.4549 21.1127 22.3958 19.5265 22.5276 17.9688Z" fill="#114C9E"/>
<path d="M32.5525 14.0688C33.7995 14.0344 35.0585 14.0851 36.3065 14.0919C38.3822 14.1077 40.4579 14.096 42.5332 14.0569C45.1051 14.0165 47.6807 14.0464 50.253 14.0464L64.3286 14.0467L70.9314 14.0454C72.1326 14.0431 73.4266 13.9402 74.6153 14.103C75.5412 14.2297 76.4239 14.6227 77.0932 15.2819C78.2916 16.4617 78.5843 18.0045 78.5916 19.6223L78.5908 59.0229L78.5921 71.4831L78.5917 75.5169C78.5882 76.4332 78.606 77.4005 78.5047 78.3098C78.4024 79.2272 78.0294 80.1465 77.3688 80.8028C75.9643 82.1981 73.8926 82.1801 72.0519 82.18L69.5523 82.1768L40.4369 82.1766L31.948 82.1771C30.54 82.1784 28.7832 82.2941 27.4187 82.1104C26.5042 81.9913 25.6475 81.5968 24.9626 80.9793C24.0594 80.1641 23.4771 79.0607 23.4178 77.8383C23.3518 76.4826 23.4054 75.1026 23.4066 73.7446L23.4088 66.0979L23.4081 42.4401L23.4064 26.3283L23.4065 21.279C23.4066 20.3573 23.3512 19.3896 23.4412 18.4724C23.5433 17.4318 23.9495 16.3844 24.6591 15.6071C26.0529 14.0804 27.562 14.0847 29.4731 14.0902C30.4992 14.0932 31.5271 14.1125 32.5525 14.0688Z" fill="#FEFEFE"/>
<path d="M33.0852 17.1551C34.9441 17.0421 37.0986 17.1314 38.9881 17.1315L47.3965 17.1336C49.8695 17.1501 52.3359 17.2078 54.81 17.1479C58.7685 17.0521 62.7453 17.1335 66.7058 17.1316L70.3463 17.1287C71.1533 17.128 72.0209 17.0636 72.8156 17.2151C73.3776 17.3222 73.9404 17.6425 74.3473 18.0431C75.2207 18.9026 75.4542 20.0344 75.4594 21.2179C75.477 25.2176 75.5481 29.2489 75.4144 33.245C75.3825 34.2016 75.5032 35.2247 75.3336 36.1674C75.2384 36.7141 74.9746 37.2173 74.5791 37.6065C73.5602 38.5966 72.1412 38.5539 70.8215 38.5534L68.8052 38.5495L40.4129 38.5015C37.799 38.5077 35.185 38.497 32.5713 38.4692C32.0454 38.4656 31.5219 38.5301 30.9967 38.546C30.4251 38.5633 29.8201 38.5161 29.2514 38.4553C28.5773 38.3834 28.0033 38.1845 27.488 37.7279C26.864 37.1748 26.5466 36.4481 26.5083 35.6218C26.4591 34.5619 26.5133 33.4804 26.5149 32.4177L26.513 26.0259L26.5116 22.1393C26.5114 21.3498 26.4428 20.4771 26.5877 19.7002C26.6892 19.1561 26.9742 18.6066 27.3502 18.2043C27.6767 17.8551 28.0825 17.6139 28.5361 17.4684C29.6425 17.1137 31.8532 17.1902 33.0852 17.1551Z" fill="#114C9E"/>
<path d="M47.7268 20.1245L53.785 20.1671C53.7836 20.9187 53.851 21.6762 53.8762 22.428C53.9038 23.2512 53.8874 24.078 53.8825 24.9017C54.7992 25.341 56.8994 25.3876 57.969 25.4058C58.0166 26.4268 57.906 27.4534 57.9033 28.4768C57.898 30.5146 57.9603 32.5637 57.9249 34.5995C57.9217 34.7809 57.9138 34.9523 57.8474 35.1235C57.7498 35.3746 57.5856 35.4628 57.3504 35.5705C56.6198 35.65 47.6834 35.5912 47.5818 35.5095C47.4694 35.4191 47.426 35.2494 47.4032 35.1126C47.2907 34.438 47.3785 33.6589 47.393 32.9741C47.4166 31.9105 47.4215 30.8465 47.4079 29.7825C47.3954 29.1428 47.3304 28.5052 47.3203 27.8656C47.3066 26.9885 47.3526 26.0985 47.2992 25.2237C47.2422 24.2881 47.0685 23.4047 47.129 22.4559C47.1779 21.6883 47.2901 20.7707 47.7268 20.1245Z" fill="#FEFEFE"/>
<path d="M67.078 21.0573C70.6956 21.3942 73.3653 24.5844 73.0593 28.2047C72.7533 31.825 69.5861 34.5219 65.9632 34.2469C62.2964 33.9685 59.5595 30.7543 59.8692 27.0899C60.1789 23.4255 63.4164 20.7162 67.078 21.0573Z" fill="#FEFEFE"/>
<path d="M65.8464 23.072C66.0896 23.0829 66.3913 23.058 66.6102 23.171C66.7674 23.3431 66.7811 23.5215 66.8083 23.7421C67.0857 23.8106 67.3543 23.8821 67.6112 24.0117C68.2281 24.3229 68.613 24.918 68.7955 25.5713C68.8155 25.643 68.8457 25.7349 68.7972 25.7984C68.5843 26.0776 67.8831 26.1236 67.5563 26.1737C67.3828 25.6799 67.233 25.3764 66.7925 25.0638L66.7915 27.164C67.3258 27.2354 67.8895 27.3193 68.351 27.6172C68.8057 27.9107 69.0759 28.3901 69.1826 28.913C69.3235 29.6004 69.1805 30.3155 68.786 30.8958C68.3031 31.5913 67.6292 31.8276 66.8377 31.9757C66.8366 32.2828 66.8879 32.6375 66.8095 32.9341L66.7009 32.9717L65.9035 32.971C65.8765 32.634 65.8629 32.2951 65.8439 31.9575C65.1892 31.8376 64.5568 31.6204 64.1323 31.0742C63.8666 30.7326 63.5932 30.0764 63.6543 29.6312C63.8641 29.3734 64.453 29.2853 64.7745 29.1974C64.8235 29.4805 64.8551 29.8796 65 30.1297C65.1935 30.4634 65.4932 30.5312 65.8378 30.6317C65.8561 29.8934 65.8411 29.1509 65.8424 28.4121C65.5101 28.3431 65.1562 28.2703 64.8497 28.121C64.3451 27.8752 63.9998 27.4589 63.8231 26.9281C63.6152 26.304 63.684 25.6407 63.9916 25.0617C64.403 24.2877 65.0335 23.9213 65.8428 23.6857L65.8464 23.072Z" fill="#114C9E"/>
<path d="M66.798 28.5671C67.1068 28.5982 67.4157 28.6391 67.6765 28.8211C67.8541 28.9451 67.9831 29.116 68.013 29.3343C68.0607 29.6835 67.8641 29.9637 67.666 30.2287C67.4058 30.4376 67.1319 30.5432 66.8239 30.6598L66.798 28.5671Z" fill="#FEFEFE"/>
<path d="M65.7142 25.0842L65.78 25.1032C65.9296 25.3222 65.843 26.6627 65.8414 26.9925L65.3067 26.7947C65.2133 26.7315 65.1231 26.6722 65.0523 26.5829C64.9325 26.4316 64.8882 26.23 64.9215 26.0411C64.9987 25.6037 65.3684 25.3151 65.7142 25.0842Z" fill="#FEFEFE"/>
<path d="M40.3471 21.7976L40.3799 21.8115C40.4834 21.9581 40.6332 24.7438 40.6723 25.1309C40.9339 27.7214 41.4135 30.2791 41.9472 32.8248C40.5662 32.3331 39.2311 31.9014 37.796 31.5897C37.0642 31.4529 36.3253 31.3127 35.5815 31.2665C35.1902 29.2496 35.1151 27.1497 34.872 25.1101C36.9151 24.2974 38.7075 23.2737 40.3471 21.7976Z" fill="#FEFEFE"/>
<path d="M33.0032 25.4191C33.3139 25.3653 33.6753 25.3876 33.993 25.3772C34.1521 27.3139 34.359 29.2308 34.5745 31.1616C33.3764 31.353 32.0808 31.4571 30.8666 31.4805C30.8014 31.4799 30.7538 31.4769 30.6967 31.4401C30.1575 31.0928 29.3899 30.0893 29.2964 29.4414C29.2248 28.9456 29.5882 26.9551 29.875 26.5966C30.4687 25.8546 32.1194 25.5369 33.0032 25.4191Z" fill="#FEFEFE"/>
<path d="M42.0714 20.9315L42.6162 20.9141C42.7532 22.2282 42.9907 23.5221 43.1816 24.828C43.4055 26.3612 43.5926 27.9 43.8228 29.4323C44.0269 30.7906 44.338 32.1587 44.3732 33.5333C44.1242 33.5582 43.8705 33.559 43.6204 33.5681C43.4736 33.5702 43.2542 33.6023 43.1336 33.5159C42.9132 33.0807 42.8202 32.5604 42.7014 32.0892C41.8753 28.8144 41.4101 24.6549 41.2325 21.2653C41.5012 21.1091 41.7687 21.0024 42.0714 20.9315Z" fill="#FEFEFE"/>
<path d="M54.687 20.3008C54.7036 20.3014 54.7202 20.3017 54.7367 20.3025C54.7623 20.3039 54.7879 20.306 54.8135 20.3074C55.6571 20.3542 56.8076 22.355 57.3149 23.024C57.5358 23.3153 57.7785 23.5736 58.0407 23.8276C58.0301 24.0656 58.0033 24.3024 57.9797 24.5394C57.3245 24.5811 55.5044 24.2551 54.7321 24.1563C54.7379 22.8696 54.6849 21.586 54.687 20.3008Z" fill="#FEFEFE"/>
<path d="M33.8576 32.1947C33.9632 32.1836 34.0643 32.1833 34.1702 32.1833C34.1944 32.2011 34.2237 32.2135 34.2429 32.2366C34.3189 32.3276 34.5385 33.1856 34.5881 33.3394C34.8284 34.0845 35.1313 34.811 35.4009 35.5463C34.8889 35.8905 34.4013 36.0317 33.7867 35.9662L33.4992 35.8754C33.2549 35.6708 32.3248 32.7897 32.2302 32.3229C32.7637 32.246 33.3194 32.2327 33.8576 32.1947Z" fill="#FEFEFE"/>
<path d="M44.2123 25.3733C44.52 25.4564 44.8367 25.5934 45.1014 25.7712C45.4927 26.0339 45.8 26.4183 45.8782 26.8918C45.9849 27.5373 45.6972 28.1065 45.3224 28.6066C45.1442 28.8148 44.9512 28.9975 44.7504 29.1832C44.4489 27.9719 44.3436 26.6157 44.2123 25.3733Z" fill="#FEFEFE"/>
<path d="M66.3811 54.7993C67.7194 54.7312 69.0823 54.7809 70.423 54.7801C71.3283 54.7795 72.3204 54.7017 73.2175 54.8099C73.4761 54.841 73.7069 54.9045 73.9343 55.0342C74.3791 55.2877 74.6772 55.6648 74.8169 56.1558C75.023 56.8796 74.9074 58.4438 74.9076 59.2761L74.9082 64.4256L74.907 71.6312C74.9067 72.89 74.96 74.1728 74.8933 75.4286C74.8688 75.8887 74.8329 76.3996 74.5935 76.803C74.3194 77.2648 73.9029 77.468 73.4048 77.5979C72.0047 77.6695 70.5783 77.62 69.1759 77.621C68.2566 77.6216 67.2524 77.7036 66.3414 77.5924C66.0854 77.5612 65.8457 77.4931 65.6214 77.3629C65.2033 77.1204 64.9601 76.6904 64.8556 76.2281C64.6226 75.1967 64.7448 73.9516 64.7443 72.8905L64.7432 67.474L64.7441 60.3897C64.7444 59.179 64.679 57.9285 64.7644 56.7229C64.7932 56.3177 64.8472 55.9632 65.0755 55.6141C65.3865 55.1389 65.8462 54.9209 66.3811 54.7993Z" fill="#114C9E"/>
<path d="M41.3879 67.2505C42.6946 67.1829 44.0261 67.2319 45.3353 67.2309C46.2357 67.2303 47.218 67.1524 48.1094 67.2688C48.4296 67.3107 48.7794 67.3936 49.0482 67.5771C49.4247 67.8344 49.6764 68.278 49.7538 68.7237C49.9068 69.6055 49.8075 71.4696 49.8069 72.4393C49.8062 73.5865 49.9011 74.8686 49.7778 76.0002C49.743 76.3192 49.6932 76.6078 49.5019 76.874C49.163 77.3452 48.6565 77.5064 48.1117 77.5937L43.4943 77.601C42.734 77.6019 41.8849 77.674 41.1344 77.5603C40.8471 77.5168 40.5825 77.4199 40.3426 77.2543C39.867 76.9261 39.6979 76.535 39.604 75.9864C39.4339 74.9921 39.5393 73.6391 39.5393 72.6138C39.5394 71.4793 39.4414 70.2449 39.5876 69.1214C39.6371 68.7409 39.7111 68.362 39.9413 68.0459C40.2995 67.5539 40.8065 67.3475 41.3879 67.2505Z" fill="#114C9E"/>
<path d="M54.0025 67.248C55.2744 67.1936 56.5631 67.2323 57.8367 67.231C58.7316 67.2301 59.6834 67.1632 60.5724 67.2593C60.8901 67.2937 61.2621 67.3766 61.5415 67.5375C61.9361 67.7648 62.2559 68.1924 62.3599 68.6354C62.5774 69.5618 62.4482 71.4798 62.4489 72.492C62.4496 73.5433 62.5324 74.6703 62.422 75.7139C62.3831 76.0829 62.3034 76.497 62.0973 76.81C61.7855 77.2833 61.3016 77.4798 60.7707 77.5938C59.3061 77.6288 57.835 77.6044 56.3698 77.605C55.5405 77.6053 54.6527 77.6725 53.8314 77.5792C53.5387 77.546 53.2356 77.4854 52.9872 77.3201C52.6023 77.0637 52.3236 76.6208 52.2455 76.1658C52.0914 75.2678 52.1902 73.7195 52.1899 72.7683C52.1896 71.6119 52.0921 70.1489 52.2307 69.0214C52.273 68.6775 52.3445 68.3391 52.547 68.0506C52.8949 67.5551 53.4301 67.3519 54.0025 67.248Z" fill="#114C9E"/>
<path d="M28.806 67.349C30.0428 67.2701 31.3229 67.3304 32.5633 67.33C33.5209 67.3296 34.5656 67.2464 35.5141 67.3627C35.8666 67.406 36.2698 67.4915 36.5591 67.7048C36.8603 67.9268 37.0638 68.3167 37.1144 68.6837C37.1898 69.2309 37.1587 69.8093 37.1595 70.3607L37.1621 73.1471C37.1706 74.0501 37.3007 74.9682 37.2255 75.8689C37.1961 76.2211 37.1595 76.574 36.9379 76.8622C36.5647 77.3478 36.0029 77.5015 35.4238 77.5781C34.2453 77.6847 32.9783 77.5933 31.7938 77.5815C30.8008 77.5718 29.721 77.643 28.7372 77.5276C28.4288 77.4914 28.0413 77.4262 27.7833 77.2505C27.444 77.0195 27.168 76.6201 27.0904 76.2163C26.9021 75.2378 27.0093 73.5639 27.0078 72.5174C27.0062 71.4045 26.9043 70.1176 27.055 69.0232C27.1014 68.6861 27.1814 68.416 27.3833 68.1372C27.7366 67.6491 28.2307 67.4466 28.806 67.349Z" fill="#114C9E"/>
<path d="M41.2662 54.7983C42.6244 54.7412 43.9989 54.7818 45.3589 54.781C46.2575 54.7805 47.2214 54.7129 48.1139 54.8049C48.4263 54.837 48.7678 54.9066 49.0329 55.0808C49.3937 55.3178 49.6798 55.7592 49.7573 56.1838C49.9051 56.9935 49.8077 58.706 49.8074 59.5909C49.8069 60.7698 49.8976 62.1614 49.7804 63.3153C49.7483 63.6309 49.7021 63.9115 49.5122 64.1757C49.1758 64.6442 48.652 64.8413 48.1029 64.927C46.6894 65.0191 45.2294 64.9483 43.8134 64.9285C42.9822 64.9168 42.0757 64.9737 41.2521 64.8688C40.9027 64.8243 40.4993 64.7317 40.206 64.532C39.8671 64.3012 39.6576 63.8388 39.5938 63.4454C39.4383 62.4852 39.5402 61.0532 39.5402 60.0526C39.5402 58.9105 39.4434 57.5605 39.5798 56.4393C39.6202 56.1072 39.6802 55.7723 39.8833 55.4981C40.2183 55.046 40.7354 54.8824 41.2662 54.7983Z" fill="#114C9E"/>
<path d="M66.4509 42.3492C67.7869 42.2833 69.1456 42.3312 70.4839 42.3308C71.3744 42.3306 72.3317 42.2563 73.2126 42.357C73.5453 42.3949 73.9242 42.4702 74.2104 42.6471C74.5413 42.8517 74.7783 43.2293 74.8627 43.6042C75.0641 44.4985 75.0847 49.5818 74.9781 50.6204C74.9409 50.9825 74.8748 51.4079 74.6671 51.7124C74.37 52.148 73.901 52.3232 73.4092 52.4313C72.3033 52.6036 71.0541 52.4974 69.9332 52.4965C68.8169 52.4957 67.6069 52.5799 66.5007 52.4449C66.1591 52.4032 65.7566 52.3254 65.4697 52.1309C65.1296 51.9004 64.8738 51.5021 64.7971 51.0993C64.6368 50.2567 64.7403 48.7424 64.7403 47.8447C64.7402 46.6389 64.6446 45.2937 64.7793 44.1016C64.8197 43.7442 64.8848 43.3801 65.0993 43.0836C65.4332 42.6221 65.9117 42.4462 66.4509 42.3492Z" fill="#114C9E"/>
<path d="M41.3145 42.3467C42.6372 42.285 43.983 42.333 45.3085 42.3304C46.2282 42.3286 47.2258 42.2507 48.1376 42.3586C48.4788 42.399 48.8623 42.4711 49.1465 42.6726C49.476 42.9063 49.7151 43.2595 49.7654 43.6643C49.9054 44.7903 49.8081 46.3009 49.8079 47.4601C49.8077 48.5546 49.8998 49.8429 49.7782 50.9198C49.7441 51.2213 49.6986 51.4981 49.5036 51.7402C49.1584 52.1686 48.6401 52.3392 48.1109 52.3968C46.5039 52.595 44.8406 52.4703 43.2297 52.4219C42.5471 52.4015 41.837 52.4554 41.1596 52.3713C40.8912 52.338 40.5712 52.2688 40.3394 52.1262C39.9464 51.8845 39.7262 51.4371 39.6348 50.9985C39.4245 49.9903 39.5398 48.4803 39.5398 47.4268C39.5397 46.3553 39.4599 45.2083 39.5938 44.146C39.6393 43.7857 39.7154 43.4005 39.9251 43.0975C40.2552 42.6203 40.7659 42.4351 41.3145 42.3467Z" fill="#114C9E"/>
<path d="M53.901 54.7955C55.2979 54.7354 56.715 54.7823 58.1139 54.7816C58.9989 54.7811 59.9669 54.6991 60.8416 54.8101C61.1352 54.8474 61.3968 54.92 61.6506 55.0767C62.0109 55.2992 62.2532 55.6679 62.3358 56.082C62.5068 56.9382 62.4051 59.0926 62.4051 60.094C62.4051 61.1675 62.4908 62.3097 62.3811 63.3754C62.3491 63.6858 62.2982 63.9731 62.1144 64.2333C61.7921 64.6897 61.2862 64.8527 60.7609 64.9413C59.3375 64.9644 57.9081 64.9528 56.4844 64.9426C55.6463 64.9366 54.7626 64.978 53.9328 64.8716C53.6257 64.8322 53.2778 64.7621 53.0181 64.5881C52.6291 64.3275 52.3312 63.9139 52.2441 63.4504C52.0892 62.6249 52.1895 61.0526 52.1896 60.1664C52.1896 59.0648 52.0934 57.5705 52.2334 56.5056C52.2808 56.1449 52.3612 55.8438 52.5791 55.5443C52.9128 55.0855 53.3605 54.8924 53.901 54.7955Z" fill="#114C9E"/>
<path d="M28.6971 54.7994C29.9214 54.7208 31.1866 54.7811 32.4153 54.7798C33.3811 54.7787 34.4308 54.6979 35.3876 54.8072C35.7381 54.8473 36.1191 54.9242 36.4111 55.1313C36.799 55.4064 37.0452 55.8109 37.1149 56.28C37.1968 56.8301 37.165 57.4225 37.1672 57.9781L37.18 60.7495C37.1863 61.5559 37.2986 62.4043 37.2111 63.2043C37.1703 63.5773 37.1002 63.9191 36.863 64.2217C36.501 64.6838 35.9807 64.8515 35.4233 64.9295C33.7398 65.03 31.9812 64.9707 30.2952 64.9121C29.7471 64.8931 29.1758 64.9309 28.6321 64.86C28.3366 64.8215 27.9957 64.7621 27.742 64.6008C27.3928 64.3789 27.1125 63.965 27.0356 63.5595C26.8605 62.635 26.9652 60.8567 26.9646 59.8528C26.964 58.7442 26.875 57.5549 26.9946 56.4568C27.0286 56.1447 27.081 55.873 27.2619 55.6071C27.5985 55.1124 28.1326 54.9041 28.6971 54.7994Z" fill="#114C9E"/>
<path d="M28.8101 42.3468C30.09 42.2884 31.3884 42.3296 32.6702 42.3288C33.5737 42.3281 34.5301 42.264 35.4281 42.3584C35.7384 42.3911 36.1054 42.4502 36.3682 42.624C36.7338 42.8656 37.0033 43.1972 37.0817 43.6348C37.2839 44.764 37.1749 46.0363 37.1957 47.1896C37.217 48.363 37.3341 49.594 37.2241 50.7623C37.1942 51.0798 37.1431 51.4903 36.9508 51.7506C36.5744 52.2602 36.0164 52.4023 35.423 52.4848C33.7786 52.5692 31.8495 52.5249 30.1962 52.4427C29.6963 52.4179 29.1777 52.4385 28.6818 52.371C28.4017 52.3327 28.1016 52.2715 27.8628 52.1136C27.4735 51.8562 27.2048 51.4182 27.1155 50.9646C26.8991 49.8663 27.0159 47.9681 27.0153 46.7802C27.0148 45.8676 26.9363 44.8753 27.0532 43.9745C27.0931 43.667 27.1622 43.3904 27.3445 43.1356C27.6962 42.6443 28.2368 42.4422 28.8101 42.3468Z" fill="#114C9E"/>
<path d="M54.0152 42.3465C55.3206 42.2919 56.6415 42.3297 57.9484 42.3288C58.8166 42.3283 59.7517 42.2575 60.6123 42.3688C60.9435 42.4116 61.3156 42.4934 61.5925 42.6855C61.9671 42.9452 62.2589 43.3865 62.325 43.8396C62.4566 44.7427 62.3638 46.1479 62.3644 47.0934C62.3652 48.2201 62.4591 49.6971 62.3335 50.7899C62.2958 51.1186 62.228 51.4152 62.0249 51.683C61.6437 52.1858 61.1113 52.3471 60.5141 52.4283C60.0569 52.4783 59.5729 52.4597 59.1123 52.4676C57.9375 52.4876 56.7795 52.4755 55.6054 52.4474C55.0302 52.4336 54.4315 52.4714 53.8605 52.4008C53.5472 52.3621 53.2037 52.2931 52.9403 52.1125C52.5894 51.872 52.3215 51.4696 52.2447 51.0501C52.0881 50.1953 52.1896 48.7118 52.1895 47.8052C52.1894 46.6136 52.0923 45.2775 52.2315 44.1C52.2726 43.7523 52.3389 43.4399 52.545 43.1487C52.9073 42.6369 53.4206 42.4437 54.0152 42.3465Z" fill="#114C9E"/>
</g>
<defs>
<clipPath id="clip0_97_1332">
<rect width="102" height="102" fill="white"/>
</clipPath>
</defs>
</svg>
