<svg width="102" height="102" viewBox="0 0 102 102" fill="none" xmlns="http://www.w3.org/2000/svg">
<g clip-path="url(#clip0_97_1236)">
<path d="M18.2533 0H83.3184L83.3597 0.00841596C83.8778 0.110025 84.4137 0.14491 84.9369 0.218302C85.6976 0.326675 86.452 0.475964 87.1966 0.665518C91.7363 1.81976 95.9368 4.65956 98.5837 8.54626C99.8793 10.4493 100.904 12.6264 101.428 14.8699C101.645 15.8035 101.752 16.7756 102 17.698V84.3924C101.687 85.7061 101.515 87.0183 101.102 88.3114C99.6691 92.7894 96.4916 96.6554 92.506 99.1137C90.7288 100.231 88.7763 101.042 86.7302 101.512C85.906 101.695 85.0149 101.77 84.2087 102H17.7974C16.9584 101.775 16.0735 101.681 15.2247 101.483C13.105 100.99 11.1265 100.1 9.27586 98.9627C5.27594 96.5041 2.16559 92.3954 0.812279 87.9064C0.424855 86.6213 0.311189 85.3053 0 84.0084V18.1363C0.218804 17.2591 0.313088 16.3237 0.501656 15.4342C1.00321 13.0591 1.94893 10.8001 3.28908 8.77616C5.92689 4.83035 9.79994 1.96275 14.3936 0.731182C15.673 0.388172 16.96 0.256663 18.2533 0Z" fill="white"/>
<path d="M54.6216 14.2163C56.4 14.1795 58.1394 14.7406 59.5611 15.8097C61.1551 17.0078 62.2555 18.8408 62.7037 20.7749C62.8559 21.4321 62.9266 22.1235 63.0199 22.7919C63.7609 23.1119 64.5198 23.3811 65.2549 23.719C67.3793 24.6958 69.2709 25.9643 71.0771 27.4425C71.8104 28.0427 72.4577 28.7416 73.1912 29.3341L73.2446 29.3769C74.947 29.1895 76.5416 29.3235 78.1235 30.023C80.0145 30.846 81.4976 32.3916 82.2418 34.3152C83.2147 36.8751 82.9751 39.109 81.876 41.5656C83.5231 45.617 84.1811 49.7975 84.1711 54.1554C84.1687 55.2134 84.1763 56.2954 84.0535 57.3476C83.841 59.166 83.37 60.9885 82.8804 62.7493C82.4691 64.2282 81.9888 65.7014 81.3483 67.0985C80.8711 68.1397 80.2663 69.1244 79.6684 70.0994C76.6061 75.165 72.2787 79.3468 67.1113 82.234C61.9071 85.196 55.9847 86.6597 49.9998 86.463C48.7888 86.4321 47.5724 86.3874 46.3723 86.2126C44.6676 85.9644 42.9809 85.4988 41.3237 85.0353C40.4537 84.767 39.6091 84.428 38.7597 84.1021C37.789 83.7299 36.8143 83.3771 35.8717 82.9359C34.5783 82.3305 33.2611 81.5071 32.1019 80.674C24.6703 75.4142 19.6495 67.4019 18.1569 58.4204C16.9045 50.553 18.5515 42.4985 22.7917 35.7543C23.2975 34.9405 23.8484 34.1354 24.444 33.3844C24.853 32.8689 25.3074 32.3831 25.6892 31.8472L25.726 31.7947C25.2722 30.9087 24.708 30.1004 24.2941 29.1866C23.2343 26.8468 22.8198 24.4571 23.7552 22.0088C24.5009 20.0565 26.0523 18.3748 27.9714 17.5263C29.7937 16.7208 31.9585 16.5629 33.8278 17.3052C36.6842 18.4395 37.941 20.275 39.1059 23.0015C42.2249 21.8753 43.6236 21.4736 46.9275 21.1815C47.0625 20.6994 47.1475 20.2032 47.2896 19.7223C47.6177 18.6116 48.2426 17.5571 49.0188 16.7011C50.502 15.0653 52.457 14.3291 54.6216 14.2163Z" fill="#114C9E"/>
<path d="M66.9304 42.3647C67.377 42.6006 68.207 42.8158 68.5568 43.1202C68.8727 43.395 70.0084 45.4961 70.348 46.0225C70.9438 46.9397 71.5647 47.8404 72.2102 48.7233C71.4928 48.5898 70.8901 48.4438 70.1905 48.7658C69.919 48.8909 69.6534 49.0291 69.3575 49.0879C67.6517 49.4265 67.7175 48.3375 66.6953 47.6921C66.4436 47.5331 66.1522 47.4757 65.8581 47.4674C64.909 47.4404 62.9146 47.841 61.9345 48.0425C59.7688 48.4879 58.378 49.4676 57.1781 51.314C56.7426 51.9842 56.3641 52.6911 55.9795 53.3912C54.8944 55.3665 53.8144 57.5533 54.3271 59.8676C54.6288 61.2035 55.4482 62.365 56.6056 63.0971C57.188 63.4651 58.4064 64.0186 59.0968 63.9601C59.2821 63.9443 59.3024 63.7816 59.4813 63.7749C60.2742 63.7455 60.994 63.6946 61.7714 63.5182C61.6891 64.8078 61.3775 66.944 61.0789 68.1864C56.2308 68.8581 50.9244 68.8875 46.0782 68.2203C45.5876 68.1527 44.8329 68.1729 44.4049 67.9438L44.381 67.8232C44.5566 67.0622 44.7789 66.2349 44.3988 65.4955C44.0183 64.7554 43.2484 64.539 42.5134 64.3125C42.2723 63.0338 42.1677 61.7138 42.0548 60.4183C41.562 54.7648 41.6608 48.8327 43.0643 43.3064C44.3925 43.5669 45.7537 43.7136 47.101 43.8327C51.9268 44.2594 55.6672 43.9373 60.4028 43.039C59.8785 44.3571 58.4658 44.3804 57.3849 45.0257C57.1819 45.1468 57.0514 45.2682 56.9971 45.504C56.865 46.0777 57.2905 46.9684 57.6042 47.4427C57.8044 47.7457 58.0823 48.0642 58.4587 48.128C58.9715 48.2151 61.4467 47.8611 61.8335 47.5832C61.9035 47.5329 61.9826 47.4534 61.9908 47.3611C62.0175 47.0612 61.6527 46.5338 61.7576 45.9957C61.882 45.3574 63.4435 43.7343 64.0048 43.3676C65.286 42.5309 66.5534 45.0981 67.8902 45.3626C68.0589 45.396 68.2271 45.3822 68.3706 45.2804C68.516 45.1771 68.6598 44.9507 68.6787 44.7742C68.7506 44.1004 67.3727 42.9657 66.9741 42.4248L66.9304 42.3647Z" fill="#FEFEFE"/>
<path d="M34.681 40.7576C35.1764 40.8515 36.5445 41.5824 37.2205 41.806C38.0124 42.0723 38.8127 42.3126 39.6204 42.5263C40.3959 42.7274 41.1923 42.886 41.9526 43.1382C41.6517 44.6118 41.3584 46.0857 41.1534 47.5763C40.4436 52.9589 40.4754 58.4135 41.2477 63.7876C40.5865 63.4994 39.9478 63.1538 39.2927 62.8509C38.6153 62.5379 37.8286 62.267 37.2139 61.8439C36.9999 61.3502 36.8912 60.8196 36.7341 60.3064C36.0677 58.1291 34.2891 57.6114 32.4415 56.6302C31.4219 56.0787 30.4251 55.3666 29.3328 54.9749C29.0134 55.1054 28.7091 55.3194 28.4062 55.4864C27.8585 55.7885 27.2859 56.004 26.6845 56.1715C26.4957 56.0816 26.3071 55.9682 26.1559 55.8224C25.4215 55.1142 25.4247 53.702 25.3956 52.7563C25.2222 52.5998 25.0319 52.4595 24.8487 52.3144C24.8509 51.5275 25.0298 50.8165 25.2092 50.0544C25.0801 49.6002 23.8218 49.6516 23.3761 49.3819C23.1388 49.2383 22.9951 49.0246 22.9324 48.7564C22.7395 47.931 23.2727 45.9622 23.7338 45.2947C23.9284 45.0128 24.2299 44.7757 24.5742 44.7196C26.659 44.38 26.5443 48.0501 27.511 48.7C27.6771 48.8118 27.8792 48.8358 28.0728 48.7954C28.6882 48.6672 28.5312 47.5411 28.5707 47.0786C28.5979 46.7589 28.6717 46.4377 28.7717 46.1333C28.9329 45.6431 29.2839 45.1438 29.5829 44.7261C30.4986 43.4472 32.3937 41.4888 33.899 40.9219C34.144 40.8296 34.4233 40.7996 34.681 40.7576Z" fill="#FEFEFE"/>
<path d="M62.9224 24.1265C63.0982 24.2582 63.5435 25.4938 63.728 25.8139C63.9127 26.1342 64.1195 26.4679 64.3645 26.7459C64.8611 27.3091 66.4217 28.4531 66.5111 29.1206C66.5348 29.2968 66.4289 29.4954 66.3376 29.6394C65.4623 31.0197 62.8548 30.8897 62.2529 31.789C61.5547 32.8323 62.6276 34.809 62.828 35.9187C62.8729 36.1673 62.8848 36.4097 62.8172 36.6555C62.5137 37.7592 61.2352 39.0241 60.5954 39.99C60.1526 40.6583 60.1154 41.2099 60.2705 41.9749C54.5405 43.068 49.3053 43.0735 43.5524 42.2066L43.4571 42.1352C43.2725 41.3175 45.0846 36.562 45.4782 35.4716C45.5747 35.2044 45.8658 34.1545 46.0374 33.9843C46.284 33.7395 46.4459 33.9826 46.8012 33.4056C46.8843 33.2707 46.9607 33.1315 47.0813 33.0256C47.6189 32.554 49.5048 31.3557 50.168 31.1903C50.3582 31.1429 50.5983 31.169 50.7939 31.175C51.876 32.57 52.8557 35.2916 54.5411 36.0789C54.8098 36.2044 55.0442 36.2532 55.327 36.1449C55.8129 35.9592 56.2352 35.4696 56.5502 35.069C57.4958 33.866 58.1727 32.4732 58.969 31.1739C59.2795 30.6671 59.6415 30.1907 59.9602 29.6879C60.6709 28.5665 61.3749 27.363 61.9919 26.1872C62.3421 25.5201 62.6124 24.8128 62.9224 24.1265Z" fill="#FEFEFE"/>
<path d="M57.7317 34.1145C57.7586 34.1167 57.7855 34.1184 57.8124 34.1212C57.9259 34.1333 58.0472 34.1617 58.1452 34.2216C58.6212 34.5124 59.5347 35.6075 59.9133 36.0827C60.4082 36.7035 60.5548 37.2618 60.4615 38.0479C60.3958 38.6019 60.2742 39.6705 60.0102 40.1401C59.9287 40.2849 59.7916 40.3844 59.6632 40.4852C59.4965 40.547 59.3104 40.5641 59.1449 40.4903C58.7509 40.3145 58.5229 39.8477 58.3702 39.4675C58.4351 39.0911 58.5708 38.7402 58.6672 38.3727C59.0049 37.0857 58.0214 36.4223 57.4696 35.4156C57.3258 35.1533 57.195 34.8208 57.2962 34.521C57.3737 34.291 57.5276 34.2164 57.7317 34.1145Z" fill="#114C9E"/>
<path d="M56.7766 37.655C56.8867 37.6489 56.9971 37.6396 57.1057 37.665C57.2627 37.7016 57.4009 37.8111 57.4792 37.9513C57.6461 38.2501 57.5899 38.6512 57.4946 38.9629C57.3683 39.3761 57.1961 39.6712 56.814 39.8803C56.8076 39.8802 56.801 39.8803 56.7945 39.8801C56.5716 39.8744 56.3672 39.8361 56.2133 39.6597C56.0596 39.4837 56.0409 39.2395 56.0645 39.017C56.1184 38.5089 56.3724 37.9709 56.7766 37.655Z" fill="#114C9E"/>
<path d="M74.1426 30.5021C74.4993 30.4829 74.8809 30.5401 75.2365 30.5787C76.8385 30.753 78.1044 31.2415 79.3613 32.2499C80.8083 33.4108 81.4671 35.1666 81.652 36.9677C82.0384 40.7319 77.4728 46.8216 75.1718 49.6671C75.0644 49.7885 74.9396 49.891 74.8176 49.9972L74.7845 49.9723L74.7299 49.9301C74.6533 49.8717 74.5764 49.8139 74.5024 49.7519C73.6879 49.0704 73.0661 47.8967 72.4874 47.012C70.82 44.4622 69.1334 41.9608 68.197 39.0339C68.0236 38.4919 67.8373 37.9244 67.7862 37.356C67.6587 35.9348 68.4917 33.9219 69.3952 32.849C70.6642 31.3423 72.207 30.667 74.1426 30.5021Z" fill="#FEFEFE"/>
<path d="M74.2681 34.2867C76.0153 33.9978 77.6667 35.1772 77.9605 36.9235C78.2543 38.6698 77.0796 40.3246 75.3341 40.6233C73.5817 40.9233 71.9188 39.7429 71.6239 37.9896C71.3289 36.2362 72.514 34.5768 74.2681 34.2867Z" fill="#114C9E"/>
<path d="M44.0123 69.0999C47.5053 69.6972 51.05 69.9385 54.5918 69.8201C56.6874 69.7515 58.7741 69.5445 60.8607 69.3519C60.6905 70.3932 60.4038 71.427 60.1175 72.4412C59.2777 75.4164 58.1729 78.1957 56.7214 80.9242C56.2175 81.8315 54.8111 84.2842 54.1456 84.9187C53.7504 85.2955 51.4201 85.2764 50.8068 85.2479C50.2758 84.6468 49.8176 83.9232 49.3645 83.2617C46.7693 79.4825 44.896 75.2558 43.839 70.795C43.6935 70.1711 43.6578 69.6658 44.0123 69.0999Z" fill="#FEFEFE"/>
<path d="M54.1059 15.508C54.1136 15.507 54.1214 15.5053 54.1292 15.5047C56.0988 15.3493 57.9188 15.9129 59.4146 17.2087C60.4808 18.1324 60.9926 19.2178 61.3894 20.5532C61.5532 21.1041 61.6993 21.6735 61.7374 22.249C61.7989 23.1775 61.5586 24.2168 61.2051 25.0706C60.8773 25.8623 60.3782 26.6038 59.9376 27.3371C59.2553 28.4852 58.5612 29.6261 57.8552 30.7597C57.0537 32.0584 56.3776 33.4822 55.3621 34.6306C55.2267 34.7668 55.075 34.8899 54.9306 35.0168C53.4585 33.8665 52.0391 30.9103 51.0435 29.2499C50.4549 28.2681 49.786 27.3438 49.2843 26.3105C48.7416 25.1927 48.2337 24.0304 48.077 22.7887C47.8878 21.2893 48.3405 19.4766 49.2767 18.2795C50.5687 16.6275 52.043 15.7592 54.1059 15.508Z" fill="#FEFEFE"/>
<path d="M54.2763 18.9193C56.0039 18.6049 57.6566 19.7588 57.9568 21.4888C58.257 23.2188 57.0897 24.862 55.3573 25.1482C53.6447 25.431 52.0245 24.28 51.7277 22.5698C51.4309 20.8596 52.5686 19.23 54.2763 18.9193Z" fill="#114C9E"/>
<path d="M30.8248 18.0494C32.2098 17.8905 33.7595 18.4467 34.8835 19.2299C36.4332 20.3098 37.7123 21.9764 38.0291 23.8641C38.1856 24.7972 38.0921 25.8163 37.7978 26.714C37.574 27.3962 37.1927 28.0418 36.859 28.6762C35.2812 31.6741 33.3352 34.5076 31.3857 37.2762L31.1513 37.5805C30.0587 36.1041 29.0754 34.5302 28.0851 32.9836C26.76 30.9144 24.705 28.1692 24.4277 25.6739C24.2325 23.9175 24.5957 22.0765 25.7229 20.6774C26.9654 19.1353 28.8822 18.2488 30.8248 18.0494Z" fill="#FEFEFE"/>
<path d="M30.6762 21.813C32.4069 21.5397 34.0282 22.7305 34.2852 24.4637C34.5423 26.1968 33.3364 27.8068 31.6009 28.0477C29.8882 28.2854 28.3038 27.0988 28.0501 25.3883C27.7965 23.6779 28.9683 22.0826 30.6762 21.813Z" fill="#114C9E"/>
<path d="M80.5038 65.5628C80.5569 65.5626 80.5245 65.5565 80.5877 65.6156C80.5152 66.0603 80.1802 66.6052 79.9787 67.0095C79.0326 68.9073 78.0056 70.7841 76.6906 72.4561C71.7947 78.6816 63.5483 83.9882 55.6007 84.9318C57.2793 82.6827 58.4955 80.2095 59.5819 77.6321C60.2657 75.9098 60.8479 74.1489 61.3259 72.3584C61.6008 71.3317 61.7631 70.2322 62.1369 69.2399C62.9249 69.0446 63.7483 68.9754 64.5485 68.8356C65.3699 68.6923 66.2248 68.4556 67.0546 68.3985C67.219 68.3872 67.3543 68.3909 67.5056 68.4629C67.8795 69.1004 66.9908 71.3724 66.8221 72.1956C66.5565 73.4911 66.9402 74.7587 66.9169 76.0547C66.9045 76.7449 66.6382 77.4025 66.5972 78.0854C66.5897 78.2103 66.5957 78.3335 66.6774 78.4358C66.766 78.5466 66.8799 78.6029 67.0187 78.6186C67.9692 78.7255 70.2869 77.2863 71.023 76.6925C72.256 75.698 73.1439 74.2205 74.166 73.0157C75.3413 71.6303 76.886 70.3257 77.74 68.7147C78.2254 67.799 78.3548 66.9054 78.4584 65.8909C79.1382 65.7698 79.8201 65.6603 80.5038 65.5628Z" fill="#FEFEFE"/>
<path d="M46.5897 22.4841L46.6463 22.4817C46.7553 22.5913 47.1839 24.4203 47.2784 24.7326C46.8115 24.8788 46.3035 24.9162 45.8526 25.1118C45.3677 25.322 45.1377 25.8186 44.9462 26.2817C44.6463 27.0075 44.0063 28.4979 44.3436 29.2315C44.557 29.6954 45.5056 29.6019 45.9522 29.7757L46.0147 29.8007C45.732 30.6641 45.2456 31.529 45.1124 32.4299C45.0505 32.8483 45.1058 33.0528 45.3531 33.3909C44.6373 35.0378 43.9081 36.6818 43.3216 38.3805C42.9197 39.5447 42.635 40.7497 42.2208 41.9064C40.0859 41.5147 37.9275 40.9795 35.8906 40.2247L35.8922 40.1075L35.8205 40.1444L35.816 40.1649C35.875 40.0504 35.9639 39.9988 36.0642 39.9217C37.1877 39.2667 39.2573 39.9412 40.1742 38.878C41.3046 37.5672 38.017 34.4295 38.0741 33.5731C38.1183 32.9084 40.4708 32.4874 40.9945 32.0024C41.3977 31.6289 41.428 30.7371 41.4421 30.2213C41.4614 29.5114 41.5051 28.3403 40.9489 27.8002C40.4688 27.3342 39.4649 27.4748 38.8493 27.4933C39.2155 26.3366 39.3512 25.363 39.3493 24.1559C41.315 23.1806 44.4058 22.7651 46.5897 22.4841Z" fill="#FEFEFE"/>
<path d="M43.0079 72.1553C43.1108 72.2594 44.2091 75.7146 44.4086 76.2312C45.611 79.3436 47.1216 82.5788 49.1969 85.2135C47.3877 85.0641 45.6805 84.8353 43.8998 84.4585C42.0199 84.0179 40.2318 83.4496 38.4668 82.667C38.1262 81.6723 37.2822 80.9665 36.9273 80.012C36.8673 79.8507 36.8314 79.7086 36.8874 79.5394C37.0679 78.9943 38.2859 78.2393 38.6831 77.6599C39.2813 76.7869 39.053 75.4084 39.7157 74.6954C39.9252 74.4701 40.2083 74.3552 40.489 74.2472C41.8137 73.7375 42.3752 73.5086 43.0079 72.1553Z" fill="#FEFEFE"/>
<path d="M20.5982 43.749C20.6209 43.762 20.6464 43.7709 20.6663 43.788C20.9563 44.0372 20.8119 44.7071 20.7756 45.0422C20.628 46.4054 20.5616 48.5758 20.9385 49.8666C21.0774 50.3364 21.3056 50.7751 21.6106 51.1585C22.0262 51.6897 22.6474 52.2155 22.8856 52.8548C23.0475 53.2896 23.0202 53.7955 23.1455 54.2465C23.4647 55.3947 23.9486 56.6824 25.0366 57.3055C25.4382 57.5355 25.8835 57.6737 26.2856 57.907L26.3427 57.9409C26.2274 58.3141 26.046 58.6797 25.8985 59.0421C25.605 59.7642 25.333 60.493 25.1384 61.2488C24.7014 62.9473 24.7665 63.1399 25.6487 64.6297C25.2813 64.6316 20.5842 62.3323 20.1511 62.0554C19.8986 61.2504 19.7322 60.3961 19.5687 59.5692C18.6814 55.2838 18.7276 50.8576 19.7039 46.5918C19.9314 45.6272 20.1711 44.6467 20.5982 43.749Z" fill="#FEFEFE"/>
<path d="M20.8051 63.79C20.8439 63.8044 20.8827 63.8192 20.9213 63.8346C21.924 64.2283 22.8899 64.7526 23.8828 65.1771C24.5931 65.4809 25.883 65.9031 26.4944 66.2708C26.9257 66.5302 27.4464 67.3454 27.7996 67.739C28.424 68.4344 29.122 69.0741 29.6881 69.8201C29.9523 70.1682 30.2301 70.5773 30.374 70.9929C30.5458 71.4887 30.6482 72.0221 30.7817 72.5299C31.1938 74.0969 31.5662 75.7433 32.1249 77.2627C32.5297 78.3637 33.2596 79.2526 33.7192 80.3074C33.3866 80.1682 33.0328 79.8898 32.7372 79.677C28.055 76.3436 24.3221 71.8478 21.906 66.6327C21.5077 65.7584 20.9615 64.7436 20.8051 63.79Z" fill="#FEFEFE"/>
<path d="M82.5593 48.5413C82.5819 48.5658 82.6091 48.5868 82.6273 48.6148C82.835 48.9345 82.8263 49.9923 82.8637 50.4115C83.2873 55.0786 82.7179 59.7826 81.193 64.2139C80.338 64.3799 79.4564 64.5092 78.6228 64.7621C78.5701 64.6325 78.5262 64.4995 78.4916 64.364C78.0447 62.6209 79.4237 60.6509 80.2602 59.2134C80.9254 58.0516 81.9015 56.6097 81.7697 55.2242C81.7527 55.0451 81.7126 54.9748 81.5775 54.8595C81.1068 54.7682 80.4429 55.3582 79.9355 55.4548C79.5051 55.5368 79.0656 55.4678 78.7085 55.2056C78.5563 55.0939 78.43 54.9524 78.3189 54.8005C78.0066 54.3743 77.7608 53.8893 77.473 53.4452C77.097 52.8656 76.6687 52.3034 76.3316 51.7003C76.2646 51.5802 76.2383 51.4745 76.2179 51.3392L76.296 51.2802C76.7749 51.2832 77.8434 52.2588 78.325 52.5461C78.7361 52.7914 79.2219 53.007 79.7071 52.8706C80.7675 52.5727 81.9977 49.4816 82.5593 48.5413Z" fill="#FEFEFE"/>
<path d="M64.3809 62.8701C64.7055 62.8174 65.1419 62.8066 65.4688 62.8447C65.9887 62.9056 66.3123 63.0848 66.6287 63.4953C66.679 64.9881 66.1573 65.7327 66.6493 67.2555L64.554 67.6459L62.3409 68.0023C62.378 67.2625 62.5344 66.5071 62.6389 65.7731C62.7551 64.956 62.8328 64.1303 62.9826 63.3188C63.4194 63.039 63.8783 62.9475 64.3809 62.8701Z" fill="#FEFEFE"/>
</g>
<defs>
<clipPath id="clip0_97_1236">
<rect width="102" height="102" fill="white"/>
</clipPath>
</defs>
</svg>
