<svg width="831" height="120" viewBox="0 0 831 120" fill="none" xmlns="http://www.w3.org/2000/svg">
<g clip-path="url(#clip0_71_2356)">
<path d="M641.357 60.1112C641.357 87.735 618.981 110.149 591.357 110.149C563.733 110.149 541.319 87.735 541.319 60.1112C541.319 32.4874 563.733 10.0737 591.357 10.0737C618.981 10.0737 641.357 32.4874 641.357 60.1112Z" fill="#45B2E5"/>
<path d="M595.067 99.5181H587.633V119.486H595.067V99.5181Z" fill="#45B2E5"/>
<path d="M595.067 0.78418H587.633V20.7033H595.067V0.78418Z" fill="#45B2E5"/>
<path d="M551.936 56.4019H531.955V63.8362H551.936V56.4019Z" fill="#45B2E5"/>
<path d="M650.684 56.4019H630.728V63.8362H650.684V56.4019Z" fill="#45B2E5"/>
<path d="M595.067 99.5181H587.633V110H595.067V99.5181Z" fill="#292A74"/>
<path d="M595.067 10.2354H587.633V20.7049H595.067V10.2354Z" fill="#292A74"/>
<path d="M551.949 56.4019H541.467V63.8362H551.949V56.4019Z" fill="#292A74"/>
<path d="M641.197 56.4019H630.728V63.8362H641.197V56.4019Z" fill="#292A74"/>
<path d="M591.86 82.426C578.945 82.426 568.439 71.9196 568.439 59.0048C568.439 46.0899 578.945 35.5835 591.86 35.5835C604.775 35.5835 615.281 46.0899 615.281 59.0048C615.281 71.9196 604.775 82.426 591.86 82.426ZM591.86 46.7412C585.102 46.7412 579.597 52.2463 579.597 59.0048C579.597 65.7632 585.102 71.2683 591.86 71.2683C598.619 71.2683 604.124 65.7632 604.124 59.0048C604.124 52.2463 598.619 46.7412 591.86 46.7412Z" fill="white"/>
<path d="M0 4.17627H35.0704L51.8192 60.3824C53.8591 67.4235 55.8866 79.9451 55.8866 79.9451H56.5133C56.5133 79.9451 58.5531 67.4235 60.7404 60.3824L77.4892 4.17627H112.093L72.6477 116.109H39.6171L0 4.17627Z" fill="#292A74"/>
<path d="M113.973 4.17627H188.648V31.0997H147.79V46.4476H180.514V73.0638H147.79V89.1859H190.836V116.109H113.973V4.17627Z" fill="#292A74"/>
<path d="M198.982 4.17627H247.668C272.245 4.17627 288.993 17.4844 288.993 40.9671C288.993 53.8082 282.419 65.8629 271.925 72.2773V72.5968C272.245 73.2235 274.432 76.0375 276.779 80.2646L296.342 116.109H259.551L242.175 81.0388H232.787V116.109H198.97V4.17627H198.982ZM242.814 54.8896C250.322 54.8896 254.709 50.3552 254.709 42.9946C254.709 35.634 251.736 31.4069 241.561 31.4069H232.8V54.8896H242.814Z" fill="#292A74"/>
<path d="M299.647 4.17627H333.464V116.109H299.647V4.17627Z" fill="#292A74"/>
<path d="M353.973 78.223C353.973 78.223 366.961 89.8107 381.99 89.8107C387.003 89.8107 391.231 88.2501 391.231 83.5437C391.231 77.5963 383.87 76.3429 372.602 71.6488C358.36 65.8611 342.705 57.0873 342.705 37.0576C342.705 15.6147 360.707 2.30664 385.75 2.30664C409.233 2.30664 422.848 14.2016 422.848 14.2016L412.047 40.3508C412.047 40.3508 399.832 30.4834 386.057 30.4834C380.896 30.4834 376.509 31.7368 376.509 36.5906C376.509 42.0712 383.084 43.3246 392.165 46.925C407.353 52.8725 425.035 61.0195 425.035 82.6221C425.035 102.185 410.167 118 382.924 118C355.681 118 340.186 102.812 340.186 102.812L353.961 78.2353L353.973 78.223Z" fill="#292A74"/>
<path d="M487.828 2.29639C516.632 2.29639 530.726 17.3248 530.726 17.3248L517.578 43.3143C517.578 43.3143 506.457 32.6728 490.335 32.6728C470.772 32.6728 461.372 45.3541 461.372 59.7559C461.372 74.1576 471.08 87.6255 490.335 87.6255C508.178 87.6255 518.512 74.6369 518.512 74.6369L533.848 99.9996C533.848 99.9996 518.819 118.002 487.669 118.002C451.197 118.002 426.928 93.7327 426.928 60.2351C426.928 26.7376 451.824 2.29639 487.828 2.29639Z" fill="#292A74"/>
<path d="M657.54 4.17627H707.172C731.281 4.17627 747.723 20.7653 747.723 44.248C747.723 67.7307 731.281 84.1723 707.172 84.1723H691.357V116.109H657.54V4.17627ZM701.839 57.3964C709.826 57.3964 713.894 51.7561 713.894 44.0883C713.894 36.4204 709.986 30.7802 702.306 30.7802H691.345V57.3964H701.839Z" fill="#292A74"/>
<path d="M754.137 4.17627H828.812V31.0997H787.954V46.4476H820.678V73.0638H787.954V89.1859H831V116.109H754.137V4.17627Z" fill="#292A74"/>
</g>
<defs>
<clipPath id="clip0_71_2356">
<rect width="831" height="118.716" fill="white" transform="translate(0 0.78418)"/>
</clipPath>
</defs>
</svg>
