<svg width="24" height="24" viewBox="0 0 24 24" fill="none" xmlns="http://www.w3.org/2000/svg">
<path d="M22.114 11.9944C22.114 17.5781 17.5907 22.1099 12.0059 22.1099C6.4212 22.1099 1.89209 17.58 1.89209 11.9944C1.89209 6.40875 6.42314 1.87891 12.0059 1.87891C17.5887 1.87891 22.114 6.41069 22.114 11.9944Z" fill="#45B2E5"/>
<path d="M12.7588 19.9629H11.2549V23.9998H12.7588V19.9629Z" fill="#45B2E5"/>
<path d="M12.7588 0H11.2549V4.02717H12.7588V0Z" fill="#45B2E5"/>
<path d="M4.0401 11.2432H0V12.7453H4.0401V11.2432Z" fill="#45B2E5"/>
<path d="M24.0001 11.2432H19.9658V12.7453H24.0001V11.2432Z" fill="#45B2E5"/>
<path d="M12.7588 19.9629H11.2549V22.0822H12.7588V19.9629Z" fill="#292A74"/>
<path d="M12.7588 1.90967H11.2549V4.02709H12.7588V1.90967Z" fill="#292A74"/>
<path d="M4.04016 11.2432H1.92114V12.7453H4.04016V11.2432Z" fill="#292A74"/>
<path d="M22.0829 11.2432H19.9658V12.7453H22.0829V11.2432Z" fill="#292A74"/>
<path d="M12.1105 16.5068C9.50057 16.5068 7.37573 14.3835 7.37573 11.7712C7.37573 9.15889 9.49863 7.03564 12.1105 7.03564C14.7224 7.03564 16.8453 9.15889 16.8453 11.7712C16.8453 14.3835 14.7224 16.5068 12.1105 16.5068ZM12.1105 9.29086C10.7425 9.29086 9.63058 10.4029 9.63058 11.7712C9.63058 13.1395 10.7425 14.2516 12.1105 14.2516C13.4786 14.2516 14.5905 13.1395 14.5905 11.7712C14.5905 10.4029 13.4786 9.29086 12.1105 9.29086Z" fill="white"/>
</svg>
